<svg width="24" height="24" viewBox="0 0 24 24" fill="none" xmlns="http://www.w3.org/2000/svg">
<path d="M11.4949 14.6479L7.35714 18.7857L8.82688 20.1709C9.50187 20.8459 9.02384 22 8.06929 22H3.06929C2.47754 22 2 21.5203 2 20.9286V15.9286C2 14.974 3.15192 14.496 3.82688 15.1709L5.21429 16.6429L9.35205 12.5051C9.63098 12.2262 10.0833 12.2262 10.3622 12.5051L11.4949 13.6378C11.7739 13.9167 11.7739 14.369 11.4949 14.6479ZM12.5051 9.35205L16.6429 5.21429L15.1731 3.82906C14.4981 3.15406 14.9762 2 15.9307 2H20.9307C21.5225 2 22 2.47969 22 3.07143V8.07143C22 9.02598 20.8481 9.50402 20.1731 8.82906L18.7857 7.35714L14.6479 11.4949C14.369 11.7738 13.9167 11.7738 13.6378 11.4949L12.5051 10.3622C12.2261 10.0833 12.2261 9.63103 12.5051 9.35205Z" fill="black"/>
</svg>
